<svg xmlns="http://www.w3.org/2000/svg" xmlns:xlink="http://www.w3.org/1999/xlink" viewBox="0 0 106 106"><defs><style>.cls-1{fill:url(#linear-gradient);}.cls-2{fill:#4c7ae0;}</style><linearGradient id="linear-gradient" x1="5.86" y1="5.86" x2="100.14" y2="100.14" gradientUnits="userSpaceOnUse"><stop offset="0" stop-color="#f2f2f2"/><stop offset="0.35" stop-color="#ebebeb"/><stop offset="0.84" stop-color="#d8d8d8"/><stop offset="1" stop-color="#d1d1d1"/></linearGradient></defs><title>Asset 1</title><g id="Layer_2" data-name="Layer 2"><g id="Layer_1-2" data-name="Layer 1"><rect class="cls-1" width="106" height="106" rx="20" ry="20"/><path class="cls-2" d="M41.64,42.77H35.57l11-11.12a6.81,6.81,0,0,0-.49-10.09,7,7,0,0,0-9.36.66L23.09,35.87a9.09,9.09,0,0,0-2.67,6.43V76.1a6.07,6.07,0,0,0,6.06,6.07H41.64A6.06,6.06,0,0,0,47.7,76.1V48.83A6.06,6.06,0,0,0,41.64,42.77Z"/><path class="cls-2" d="M78.63,42.77H72.56l11-11.12a6.81,6.81,0,0,0-.5-10.09,7,7,0,0,0-9.35.66L60.07,35.87a9.12,9.12,0,0,0-2.66,6.43V76.1a6.06,6.06,0,0,0,6.06,6.07H78.63a6.07,6.07,0,0,0,6.06-6.07V48.83A6.06,6.06,0,0,0,78.63,42.77Z"/></g></g></svg>