<svg width="88" height="84" viewBox="0 0 88 84" version="1.1" xmlns="http://www.w3.org/2000/svg" xmlns:xlink="http://www.w3.org/1999/xlink">
<title>Quote</title>
<g id="Canvas" transform="translate(125 232)">
<g id="Group">
<g id="Vector">
<use xlink:href="#path0_fill" transform="translate(-125 -232)" fill="#FFFFFF" fill-opacity="0.15"/>
</g>
<g id="Vector">
<use xlink:href="#path1_fill" transform="translate(-74.989 -232)" fill="#FFFFFF" fill-opacity="0.15"/>
</g>
</g>
</g>
<defs>
<path id="path0_fill" d="M 28.655 30.7144L 20.4099 30.7144L 35.2781 15.7024C 39.0627 11.9156 38.9275 5.55924 34.6022 2.04293C 30.9528 -1.06766 25.411 -0.526685 21.8967 2.98962L 3.64945 21.3826C 1.35165 23.6818 0 26.7923 0 30.0382L 0 38.4232L 0 56.8162L 0 75.7502C 0 80.2132 3.64945 84 8.24506 84L 28.7901 84C 33.2506 84 37.0352 80.3484 37.0352 75.7502L 37.0352 38.9642C 36.9 34.3659 33.2506 30.7144 28.655 30.7144Z"/>
<path id="path1_fill" d="M 28.655 30.7144L 20.4099 30.7144L 35.2781 15.7024C 39.0627 11.9156 38.9275 5.55924 34.6022 2.04293C 30.9528 -1.06766 25.411 -0.526685 21.8967 2.98962L 3.64946 21.3826C 1.35165 23.6818 0 26.7923 0 30.0382L 0 38.4232L 0 56.8162L 0 75.7502C 0 80.2132 3.64945 84 8.24506 84L 28.7901 84C 33.2506 84 37.0352 80.3484 37.0352 75.7502L 37.0352 38.9642C 36.9 34.3659 33.2506 30.7144 28.655 30.7144Z"/>
</defs>
</svg>
