<svg id="Layer_1" data-name="Layer 1" xmlns="http://www.w3.org/2000/svg" viewBox="0 0 789.9 256"><defs><style>.cls-1{fill:#fff;}.cls-2{fill:#f1a85e;}.cls-3{fill:#3498db;}.cls-4{fill:#24b574;}.cls-5{fill:#d44c57;}</style></defs><title>logo</title><rect class="cls-1" x="32.56" y="58.43" width="188.73" height="134.03" rx="51.75" ry="51.75"/><path class="cls-2" d="M183.91,132.52a18.18,18.18,0,0,1-7.79,11.2.46.46,0,0,0,.42.81c24.81-9,21.62-26.37,21.62-26.37A13.63,13.63,0,0,0,180.42,106a13.19,13.19,0,0,0-8.81,8.83A13.63,13.63,0,0,0,183.91,132.52Z"/><path class="cls-3" d="M148.21,132.52a18.18,18.18,0,0,1-7.79,11.2.46.46,0,0,0,.42.81c24.81-9,21.62-26.37,21.62-26.37A13.63,13.63,0,0,0,144.72,106a13.19,13.19,0,0,0-8.81,8.83A13.63,13.63,0,0,0,148.21,132.52Z"/><path class="cls-4" d="M70.09,117.4a18.18,18.18,0,0,1,7.79-11.2.46.46,0,0,0-.42-.81c-24.81,9-21.62,26.37-21.62,26.37a13.63,13.63,0,0,0,17.73,12.18,13.19,13.19,0,0,0,8.81-8.83A13.63,13.63,0,0,0,70.09,117.4Z"/><path class="cls-5" d="M105.79,117.4a18.18,18.18,0,0,1,7.79-11.2.46.46,0,0,0-.42-.81c-24.81,9-21.62,26.37-21.62,26.37a13.63,13.63,0,0,0,17.73,12.18,13.19,13.19,0,0,0,8.81-8.83A13.63,13.63,0,0,0,105.79,117.4Z"/><path class="cls-1" d="M290.57,85q0,9.07-3.22,15.21a19.61,19.61,0,0,1-9.44,9L290.29,123h-14l-9.42-11.53h-.81q-11.81,0-18.14-6.86t-6.33-19.69q0-12.83,6.35-19.6t18.19-6.77q11.85,0,18.12,6.82T290.57,85Zm-37.51,0q0,8.61,3.27,13t9.77,4.36q13,0,13-17.33t-13-17.37q-6.5,0-9.81,4.38T253.06,85Z"/><path class="cls-1" d="M343.06,59.36V92.62a19.17,19.17,0,0,1-2.55,10,16.58,16.58,0,0,1-7.37,6.57,26.33,26.33,0,0,1-11.39,2.29q-9.91,0-15.4-5.08t-5.48-13.9V59.36h10.86V90.82q0,5.94,2.39,8.72t7.91,2.78q5.34,0,7.75-2.79t2.41-8.77V59.36Z"/><path class="cls-1" d="M402.3,85q0,12.76-6.33,19.62t-18.14,6.86q-11.81,0-18.14-6.86t-6.33-19.69q0-12.83,6.35-19.6t18.19-6.77q11.85,0,18.12,6.82T402.3,85Zm-37.51,0q0,8.61,3.27,13t9.77,4.36q13,0,13-17.33t-13-17.37q-6.5,0-9.81,4.38T364.79,85Z"/><path class="cls-1" d="M432.78,110.76h-10.9V68.43h-14V59.36h38.81v9.07h-14Z"/><path class="cls-1" d="M484.25,110.76h-29.6V59.36h29.6v8.93h-18.7V79.57h17.4V88.5h-17.4v13.25h18.7Z"/><path class="cls-1" d="M525.31,96.48a13.29,13.29,0,0,1-5,11q-5,4-13.94,4a32.74,32.74,0,0,1-14.55-3.09V98.24a60,60,0,0,0,8.81,3.27,26.06,26.06,0,0,0,6.59.95,9.37,9.37,0,0,0,5.5-1.37A4.69,4.69,0,0,0,514.62,97a4.51,4.51,0,0,0-.84-2.69,9.44,9.44,0,0,0-2.48-2.27,64.14,64.14,0,0,0-6.66-3.48,31.58,31.58,0,0,1-7.07-4.25,15.94,15.94,0,0,1-3.76-4.75,13.54,13.54,0,0,1-1.41-6.33q0-6.82,4.62-10.72t12.78-3.9a30.18,30.18,0,0,1,7.65.95,52.62,52.62,0,0,1,7.61,2.67l-3.52,8.47a51.44,51.44,0,0,0-6.8-2.36,21.92,21.92,0,0,0-5.29-.67,7,7,0,0,0-4.75,1.44,4.76,4.76,0,0,0-1.65,3.76,4.65,4.65,0,0,0,.67,2.51,7.33,7.33,0,0,0,2.13,2.07,65.76,65.76,0,0,0,6.91,3.6Q520,84.53,522.64,88A13.48,13.48,0,0,1,525.31,96.48Z"/><path class="cls-1" d="M250.49,191.76h-6v-51.4h28.65v5.31H250.49v18.81h21.3v5.31h-21.3Z"/><path class="cls-1" d="M326.29,166q0,12.34-6.24,19.41t-17.35,7.07q-11.36,0-17.53-6.94T279,165.92q0-12.55,6.19-19.46t17.58-6.91q11.07,0,17.3,7T326.29,166Zm-41,0q0,10.44,4.45,15.84t12.92,5.4q8.54,0,12.9-5.38T320,166q0-10.37-4.34-15.73t-12.85-5.36q-8.54,0-13,5.4T285.33,166Z"/><path class="cls-1" d="M343.73,170.38v21.38h-6v-51.4h14.1q9.46,0,14,3.62t4.52,10.9q0,10.2-10.34,13.78l14,23.1H366.9l-12.45-21.37Zm0-5.13h8.19q6.33,0,9.28-2.51t3-7.54q0-5.1-3-7.35t-9.65-2.25h-7.77Z"/><path class="cls-1" d="M407.8,148.69a11.11,11.11,0,0,0-9.53,4.62q-3.37,4.62-3.37,12.88,0,17.19,12.9,17.19a40.76,40.76,0,0,0,13.11-2.71v9.14a36.42,36.42,0,0,1-14.13,2.64q-11.21,0-17.16-6.8t-5.94-19.53a31.89,31.89,0,0,1,2.92-14,21.09,21.09,0,0,1,8.38-9.25,24.8,24.8,0,0,1,12.81-3.22,34.6,34.6,0,0,1,15,3.62l-3.52,8.86a58.43,58.43,0,0,0-5.8-2.39A17.3,17.3,0,0,0,407.8,148.69Z"/><path class="cls-1" d="M442.74,172v19.72h-10.9v-51.4h15q10.48,0,15.5,3.81t5,11.58a13.64,13.64,0,0,1-2.5,8.07,16.52,16.52,0,0,1-7.07,5.54q11.6,17.33,15.12,22.39H460.81L448.54,172Zm0-8.86h3.52q5.17,0,7.63-1.72a6.15,6.15,0,0,0,2.46-5.41q0-3.66-2.51-5.2T446,149.29h-3.3Z"/><path class="cls-1" d="M509,191.76h-29.6v-51.4H509v8.93h-18.7v11.29h17.4v8.93h-17.4v13.25H509Z"/><path class="cls-1" d="M551.16,191.76l-3.73-12.23H528.7L525,191.76H513.23l18.14-51.61H544.7l18.21,51.61Zm-6.33-21.37q-5.17-16.63-5.82-18.81t-.93-3.45q-1.16,4.5-6.64,22.25Z"/><path class="cls-1" d="M589.2,191.76H578.3V149.43h-14v-9.07h38.81v9.07h-14Z"/><path class="cls-1" d="M611.07,191.76v-51.4H622v51.4Z"/><path class="cls-1" d="M664.23,140.36h11l-17.47,51.4H645.88l-17.44-51.4h11l9.67,30.59q.81,2.71,1.67,6.31t1.07,5a90.09,90.09,0,0,1,2.64-11.32Z"/><path class="cls-1" d="M711.3,191.76H681.7v-51.4h29.6v8.93H692.6v11.29H710v8.93H692.6v13.25h18.7Z"/><path class="cls-1" d="M752.36,177.48a13.29,13.29,0,0,1-5,11q-5,4-13.94,4a32.74,32.74,0,0,1-14.55-3.09V179.24a60,60,0,0,0,8.81,3.27,26.06,26.06,0,0,0,6.59.95,9.37,9.37,0,0,0,5.5-1.37,4.69,4.69,0,0,0,1.92-4.08,4.51,4.51,0,0,0-.84-2.69,9.44,9.44,0,0,0-2.48-2.27,64.14,64.14,0,0,0-6.66-3.48,31.58,31.58,0,0,1-7.07-4.25,15.94,15.94,0,0,1-3.76-4.75,13.54,13.54,0,0,1-1.41-6.33q0-6.82,4.62-10.72t12.78-3.9a30.18,30.18,0,0,1,7.65.95,52.68,52.68,0,0,1,7.61,2.67l-3.52,8.47a51.44,51.44,0,0,0-6.8-2.36,22,22,0,0,0-5.29-.67,7,7,0,0,0-4.75,1.44,4.76,4.76,0,0,0-1.65,3.76,4.65,4.65,0,0,0,.67,2.51,7.33,7.33,0,0,0,2.13,2.07,65.76,65.76,0,0,0,6.91,3.6q7.21,3.45,9.88,6.91A13.48,13.48,0,0,1,752.36,177.48Z"/><path class="cls-1" d="M186.77,186.79,207,168l4.82,21.12a3.43,3.43,0,0,1-4.36,4Z"/></svg>